<svg id="Layer_1" data-name="Layer 1" xmlns="http://www.w3.org/2000/svg" viewBox="0 0 119.92 121.86"><defs><style>.cls-1{fill:#2b9cf2;}.cls-2{fill:#fff;}.cls-3{fill:none;stroke:#fff;stroke-linecap:round;stroke-linejoin:round;stroke-width:16px;}</style></defs><title>Untitled-1</title><path class="cls-1" d="M985.1,481.31H944.85a45.11,45.11,0,0,0-45,45v29.77a45.11,45.11,0,0,0,45,45h29.77a45.11,45.11,0,0,0,45-45v-31.7a10.29,10.29,0,0,0-6.34-9.62C998.57,508.91,1002,481.31,985.1,481.31Z" transform="translate(-899.87 -479.18)"/><path class="cls-2" d="M996.17,479.18c-21.13,0-21.13,10.4-21.13,22.34a22.37,22.37,0,0,0,22.38,22.38c12.36,0,22.19-8.08,22.38-22.37,0-.38,0-.76,0-1.14Z" transform="translate(-899.87 -479.18)"/><path class="cls-3" d="M956.34,513c-9.47,23.67-10,32.1-9.94,34.15a7.24,7.24,0,0,1-.11,1.45c-4.56,26.36-1.51,27.58-1.51,27.58l27.5-.15" transform="translate(-899.87 -479.18)"/><path class="cls-3" d="M923.67,513l20.58,44.56h0" transform="translate(-899.87 -479.18)"/></svg>