<svg xmlns="http://www.w3.org/2000/svg" viewBox="0 0 512 512"><defs><style>.cls-1{fill:#99989b;}</style></defs><title>Asset 1</title><g id="Layer_2" data-name="Layer 2"><g id="Untitled-P_E1gina_201" data-name="Untitled-P%E1gina%201"><g id="Camada_201" data-name="Camada%201"><path class="cls-1" d="M361.75,512H150.26C67.41,512,0,444.59,0,361.74V150.27C0,67.41,67.41,0,150.26,0H361.75C444.59,0,512,67.41,512,150.27V361.74C512,444.59,444.59,512,361.75,512ZM150.26,11.75c-76.37,0-138.51,62.14-138.51,138.52V361.74c0,76.37,62.14,138.51,138.51,138.51H361.75c76.37,0,138.5-62.14,138.5-138.51V150.27c0-76.38-62.13-138.52-138.5-138.52ZM364.19,467.17H147.83A101.85,101.85,0,0,1,46.08,365.45V149A101.85,101.85,0,0,1,147.83,47.32H364.19A101.84,101.84,0,0,1,465.93,149v216.4A101.84,101.84,0,0,1,364.19,467.17ZM147.83,59.07a90.09,90.09,0,0,0-90,90v216.4a90.09,90.09,0,0,0,90,90H364.19a90.09,90.09,0,0,0,90-90V149a90.09,90.09,0,0,0-90-90Z"/><path class="cls-1" d="M256,392.92c-74.81,0-135.68-60.87-135.68-135.68S181.19,121.6,256,121.6s135.68,60.85,135.68,135.65S330.82,392.92,256,392.92Zm0-259.58c-68.33,0-123.93,55.58-123.93,123.9a123.93,123.93,0,0,0,247.87,0C379.94,188.92,324.34,133.35,256,133.35Zm0,213.92a90,90,0,1,1,90-90A90.11,90.11,0,0,1,256,347.27ZM256,179a78.26,78.26,0,1,0,78.28,78.26A78.34,78.34,0,0,0,256,179Z"/><path class="cls-1" d="M390.15,158.62a36.11,36.11,0,1,1,36.07-36.11A36.17,36.17,0,0,1,390.15,158.62Zm0-60.46a24.36,24.36,0,1,0,24.32,24.35A24.4,24.4,0,0,0,390.15,98.16Z"/></g></g></g></svg>