<svg id="Layer_1" data-name="Layer 1" xmlns="http://www.w3.org/2000/svg" viewBox="0 0 38 46"><defs><style>.cls-1{fill:#fff;}.cls-2{fill:#ccefff;}.cls-3,.cls-4,.cls-5{fill:none;stroke-linejoin:round;stroke-width:2px;}.cls-3{stroke:#2b9cf2;}.cls-3,.cls-5{stroke-linecap:round;}.cls-4,.cls-5{stroke:#1050ff;}</style></defs><title>better</title><polygon class="cls-1" points="36 17 33 17 33 9 28 5 27 1 7 1 6 5 1 9 1 37 6 41 7 45 27 45 28 41 33 37 33 23 36 23 37 20 36 17"/><polygon class="cls-2" points="17 30 27 20 22 14 17 18 17 30"/><polygon class="cls-2" points="24.23 16.67 27 20 17 30 13.27 26.27 1 37 33 37 33 9 24.23 16.67"/><rect class="cls-3" x="1" y="9" width="32" height="28"/><polyline class="cls-3" points="33 9 28 5 27 1 7 1 6 5 1 9"/><polyline class="cls-3" points="33 37 28 41 27 45 7 45 6 41 1 37"/><polyline class="cls-3" points="33 17 36 17 37 20 36 23 33 23"/><line class="cls-3" x1="6" y1="5" x2="28" y2="5"/><line class="cls-3" x1="6" y1="41" x2="28" y2="41"/><polygon class="cls-4" points="17 30 27 20 22 14 17 18 12 14 7 20 17 30"/><polygon class="cls-5" points="17 30 27 20 22 14 17 18 12 14 7 20 17 30"/><polygon class="cls-3" points="17 30 27 20 22 14 17 18 12 14 7 20 17 30"/></svg>