<svg xmlns="http://www.w3.org/2000/svg" viewBox="0 0 192 110.07"><defs><style>.cls-1,.cls-5{fill:#fff;}.cls-1,.cls-3,.cls-4,.cls-5,.cls-6{stroke:#838383;}.cls-1{stroke-miterlimit:10;}.cls-2,.cls-6{fill:#ccefff;}.cls-3,.cls-4{fill:none;}.cls-3,.cls-4,.cls-5,.cls-6{stroke-linejoin:round;}.cls-4,.cls-5{stroke-linecap:round;}</style></defs><title>Asset 11</title><g id="Layer_2" data-name="Layer 2"><g id="Illustrations"><polygon class="cls-1" points="100 60.57 119.5 60.57 125.5 60.57 140.5 54.57 140.5 35.57 122.5 28.57 104.5 35.54 103.5 41.57 100 60.57"/><polyline class="cls-1" points="132.5 13.57 135.5 13.57 135.5 16.57 132.5 18.04"/><polyline class="cls-1" points="70.5 69.57 63.5 107.57 77.5 69.57"/><polyline class="cls-1" points="134.5 69.57 138.5 107.57 120.5 75.57 102.5 107.57 107.5 69.57"/><polygon class="cls-1" points="157.5 69.57 65.5 69.57 57.5 60.57 165.5 60.57 157.5 69.57"/><polyline class="cls-1" points="153.5 69.57 160.5 107.57 146.5 69.57"/><polygon class="cls-1" points="157.5 60.57 150.5 60.57 148.5 47.57 159.5 47.57 157.5 60.57"/><polygon class="cls-1" points="132.5 22.57 122.5 26.57 112.5 22.57 112.5 6.04 122.5 0.57 132.5 6.04 132.5 22.57"/><polygon class="cls-1" points="36.5 107.57 27.5 107.57 22.5 88.57 41.5 88.57 36.5 107.57"/><polygon class="cls-2" points="120.5 75.57 138.5 107.57 134.5 69.57 112.5 69.57 109.03 95.97 120.5 75.57"/><polygon class="cls-2" points="154.6 75.57 153.5 69.57 146.5 69.57 148.71 75.57 154.6 75.57"/><polygon class="cls-2" points="69.39 75.57 70.5 69.57 77.5 69.57 75.29 75.57 69.39 75.57"/><polygon class="cls-2" points="32 88.57 41.5 88.57 36.5 107.57 32 107.57 32 88.57"/><polygon class="cls-2" points="153.5 60.57 157.5 60.57 159.5 47.57 153.5 47.57 153.5 60.57"/><polygon class="cls-2" points="112.5 11.57 112.5 10.07 122.5 4.57 132.5 10.07 132.5 11.57 112.5 11.57"/><polygon class="cls-3" points="132.5 22.57 122.5 26.57 112.5 22.57 112.5 6.04 122.5 0.57 132.5 6.04 132.5 22.57"/><line class="cls-4" x1="117.5" y1="16.07" x2="117.5" y2="14.57"/><line class="cls-4" x1="125.5" y1="16.07" x2="125.5" y2="14.57"/><polygon class="cls-5" points="71.83 60.57 64.5 34.57 97.5 34.57 104.83 60.57 71.83 60.57"/><polygon class="cls-6" points="87 47.07 84 49.07 81 47.07 81 44.07 84 42.07 87 44.07 87 47.07"/><polyline class="cls-4" points="128.77 31 122.5 43.57 116.23 31"/><line class="cls-4" x1="132.5" y1="11.57" x2="103.5" y2="11.57"/><polyline class="cls-4" points="124 20.57 121.5 21.57 119 20.57"/><polyline class="cls-4" points="132.5 13.57 135.5 13.57 135.5 16.57 132.5 18.04"/><line class="cls-4" x1="103.7" y1="56.57" x2="70.7" y2="56.57"/><polygon class="cls-5" points="104.83 60.57 120.5 60.57 118.5 56.57 103.7 56.57 104.83 60.57"/><polyline class="cls-4" points="134.5 42.57 134.5 49.57 119.5 60.57 125.5 60.57 140.5 54.57 140.5 35.57 122.5 28.57 104.5 35.54 103.5 41.57"/><line class="cls-4" x1="134.5" y1="42.57" x2="134.5" y2="47.57"/><polygon class="cls-4" points="157.5 69.57 65.5 69.57 57.5 60.57 165.5 60.57 157.5 69.57"/><polyline class="cls-4" points="70.5 69.57 63.5 107.57 77.5 69.57"/><polyline class="cls-4" points="153.5 69.57 160.5 107.57 146.5 69.57"/><line class="cls-4" x1="9.5" y1="107.57" x2="183.5" y2="107.57"/><line class="cls-4" x1="188.5" y1="107.57" x2="191.5" y2="107.57"/><line class="cls-4" x1="0.5" y1="107.57" x2="3.5" y2="107.57"/><polyline class="cls-4" points="134.5 69.57 138.5 107.57 120.5 75.57 102.5 107.57 107.5 69.57"/><polyline class="cls-4" points="150.5 41.57 152.5 39.57 148.5 35.57 150.5 33.57"/><polyline class="cls-4" points="157.5 41.57 159.5 39.57 155.5 35.57 157.5 33.57"/><polygon class="cls-4" points="157.5 60.57 150.5 60.57 148.5 47.57 159.5 47.57 157.5 60.57"/><polygon class="cls-4" points="36.5 107.57 27.5 107.57 22.5 88.57 41.5 88.57 36.5 107.57"/><polygon class="cls-5" points="36.5 71.57 40.5 71.57 44.5 63.57 36.5 67.57 36.5 71.57"/><polygon class="cls-5" points="27.5 78.57 23.5 78.57 16.5 68.57 27.5 74.57 27.5 78.57"/><polygon class="cls-5" points="37.5 52.57 41.5 52.57 48.5 42.57 37.5 48.57 37.5 52.57"/><polygon class="cls-5" points="23.5 62.57 12.5 50.57 28.5 57.57 28.5 62.57 23.5 62.57"/><line class="cls-4" x1="32.5" y1="88.57" x2="32.5" y2="35.57"/><polygon class="cls-5" points="28.5 40.57 18.5 32.57 23.5 43.57 28.5 45.57 28.5 40.57"/><polyline class="cls-4" points="25 97.57 29 93.57 32 96.57 35 93.57 39 97.57"/></g></g></svg>