<svg id="Layer_1" data-name="Layer 1" xmlns="http://www.w3.org/2000/svg" viewBox="0 0 193 140"><defs><style>.cls-1,.cls-2,.cls-6{fill:#fff;}.cls-1,.cls-4,.cls-5,.cls-6,.cls-7{stroke:#2b9cf2;stroke-linejoin:round;stroke-width:2px;}.cls-3,.cls-7{fill:#ccefff;}.cls-4,.cls-5{fill:none;}.cls-4,.cls-6{stroke-linecap:round;}</style></defs><title>design</title><polygon class="cls-1" points="31 139 17 139 12 123 36 123 31 139"/><polygon class="cls-1" points="175 139 157 139 154 115 178 115 175 139"/><polygon class="cls-2" points="32 123 16 123 16 102 24 96 32 102 32 123"/><polygon class="cls-2" points="106 139 102 128 88 128 84 139 106 139"/><polyline class="cls-2" points="120 60 143 60 143 128 47 128 47 60 72 60"/><polygon class="cls-2" points="90 71 85 29 95 6 105 29 100 71 90 71"/><polygon class="cls-3" points="24 96 32 102 32 123 24 123 24 96"/><polygon class="cls-3" points="103.82 133 102 128 88 128 86.18 133 103.82 133"/><polygon class="cls-3" points="95 6 105 29 100 71 95 71 95 6"/><polygon class="cls-3" points="143 60 143 115 47 115 143 60"/><polyline class="cls-4" points="159 110 161 108 157 104 159 102"/><polyline class="cls-4" points="166 110 168 108 164 104 166 102"/><polyline class="cls-4" points="173 110 175 108 171 104 173 102"/><polygon class="cls-5" points="98 123 95 125 92 123 92 120 95 118 98 120 98 123"/><polygon class="cls-4" points="106 139 102 128 88 128 84 139 106 139"/><polygon class="cls-4" points="32 123 16 123 16 102 24 96 32 102 32 123"/><line class="cls-4" x1="16" y1="107" x2="13" y2="107"/><line class="cls-4" x1="16" y1="102" x2="14" y2="101"/><line class="cls-4" x1="16" y1="113" x2="13" y2="113"/><line class="cls-4" x1="16" y1="119" x2="13" y2="119"/><line class="cls-4" x1="32" y1="107" x2="35" y2="107"/><line class="cls-4" x1="32" y1="113" x2="35" y2="113"/><line class="cls-4" x1="32" y1="119" x2="35" y2="119"/><line class="cls-4" x1="20" y1="99" x2="18" y2="97"/><line class="cls-4" x1="32" y1="102" x2="34" y2="101"/><line class="cls-4" x1="28" y1="99" x2="30" y2="97"/><line class="cls-4" x1="13.25" y1="127" x2="34.75" y2="127"/><polyline class="cls-4" points="20 119 22 116 20 113 22 110 20 107 22 104"/><polyline class="cls-4" points="26 119 28 116 26 113 28 110 26 107 28 104"/><line class="cls-4" x1="10" y1="139" x2="184" y2="139"/><line class="cls-4" x1="189" y1="139" x2="192" y2="139"/><line class="cls-4" x1="1" y1="139" x2="4" y2="139"/><polygon class="cls-1" points="99 34.5 95 37 91 34.5 91 29.5 95 27 99 29.5 99 34.5"/><polygon class="cls-4" points="90 71 85 29 95 6 105 29 100 71 90 71"/><polygon class="cls-6" points="84 81 79 87 74 81 79 59 84 81"/><polygon class="cls-6" points="100 81 95 87 90 81 95 59 100 81"/><polygon class="cls-6" points="116 81 111 87 106 81 111 59 116 81"/><line class="cls-4" x1="80.88" y1="67.25" x2="87.88" y2="53.2"/><line class="cls-4" x1="83.08" y1="76.93" x2="90" y2="71"/><line class="cls-4" x1="109.12" y1="67.25" x2="102.12" y2="53.2"/><line class="cls-4" x1="106.92" y1="76.93" x2="100" y2="71"/><line class="cls-4" x1="95" y1="6" x2="95" y2="1"/><line class="cls-4" x1="74" y1="81" x2="84" y2="81"/><line class="cls-4" x1="90" y1="81" x2="100" y2="81"/><line class="cls-4" x1="106" y1="81" x2="116" y2="81"/><polygon class="cls-7" points="166 132 172 126 169 121 166 124 163 121 160 126 166 132"/><polyline class="cls-4" points="177.25 121 185 121 180 133 175.75 133"/><line class="cls-4" x1="95" y1="92" x2="95" y2="98"/><line class="cls-4" x1="95" y1="102" x2="95" y2="104"/><line class="cls-4" x1="99" y1="90" x2="99" y2="96"/><line class="cls-4" x1="99" y1="100" x2="99" y2="102"/><line class="cls-4" x1="91" y1="90" x2="91" y2="96"/><line class="cls-4" x1="91" y1="100" x2="91" y2="102"/><line class="cls-4" x1="95" y1="108" x2="95" y2="109"/><line class="cls-4" x1="99" y1="106" x2="99" y2="107"/><line class="cls-4" x1="91" y1="106" x2="91" y2="107"/><line class="cls-4" x1="79" y1="92" x2="79" y2="98"/><line class="cls-4" x1="79" y1="102" x2="79" y2="104"/><line class="cls-4" x1="83" y1="90" x2="83" y2="96"/><line class="cls-4" x1="83" y1="100" x2="83" y2="102"/><line class="cls-4" x1="75" y1="90" x2="75" y2="96"/><line class="cls-4" x1="75" y1="100" x2="75" y2="102"/><line class="cls-4" x1="79" y1="108" x2="79" y2="109"/><line class="cls-4" x1="83" y1="106" x2="83" y2="107"/><line class="cls-4" x1="75" y1="106" x2="75" y2="107"/><line class="cls-4" x1="111" y1="92" x2="111" y2="98"/><line class="cls-4" x1="111" y1="102" x2="111" y2="104"/><line class="cls-4" x1="115" y1="90" x2="115" y2="96"/><line class="cls-4" x1="115" y1="100" x2="115" y2="102"/><line class="cls-4" x1="107" y1="90" x2="107" y2="96"/><line class="cls-4" x1="107" y1="100" x2="107" y2="102"/><line class="cls-4" x1="111" y1="108" x2="111" y2="109"/><line class="cls-4" x1="115" y1="106" x2="115" y2="107"/><line class="cls-4" x1="107" y1="106" x2="107" y2="107"/><polyline class="cls-4" points="120 60 143 60 143 128 47 128 47 60 72 60"/><line class="cls-4" x1="47" y1="115" x2="143" y2="115"/></svg>