<svg id="Layer_1" data-name="Layer 1" xmlns="http://www.w3.org/2000/svg" viewBox="0 0 299.44 148.23"><defs><style>.cls-1{fill:none;stroke:#fff;stroke-width:16px;}.cls-1,.cls-2{stroke-linecap:round;stroke-linejoin:round;}.cls-2{font-size:50.6px;fill:#9a989d;stroke:#999;stroke-width:3px;font-family:MyanmarText, Myanmar Text;letter-spacing:0.01em;}.cls-3{fill:#ccc;}.cls-4{fill:#fc6;}.cls-5{fill:#ed7161;}.cls-6{fill:#387aa7;}.cls-7{fill:#48a0dc;}.cls-8{fill:#4d4d4d;}.cls-9{fill:#fff;}</style></defs><title>logo1</title><polyline class="cls-1" points="166.68 123.18 166.68 123.18 166.68 123.18"/><text class="cls-2" transform="translate(165.96 104.3) scale(1.21 1)">Yalid</text><path class="cls-3" d="M869.58,549.47l-12.12,13.89-8.08,9.26v13.89l-12.12,23.16,8.08,4.63,28.28-32.42Zm-20.2-23.16-28.28-4.63L792.83,554.1l4,9.26,20.2-13.89h12.12l8.08-9.26Z" transform="translate(-792.83 -466.08)"/><path class="cls-4" d="M813,568c-8,13.31-20.14,29.72-20.2,37.05,0,5.56,3.18,9.31,8.08,9.26,6.5-.06,20.22-14,32.31-23.16Z" transform="translate(-792.83 -466.08)"/><path class="cls-5" d="M825.15,563.36c-8,13.31-24.24,29.72-24.24,37.05,0,4.84.41,4.63,4,4.63,6.5,0,20.22-18.6,32.31-27.79Z" transform="translate(-792.83 -466.08)"/><path class="cls-6" d="M914,466.11c-12.7.9-34.61,2.63-60.59,32.42-19.11,21.91-35.87,53.76-43.73,74.9l18.92,21.69c18.33-8.92,45.93-28.19,65.2-50.28,25.81-29.59,27.28-54.81,28.28-69.47C922.53,468.83,919.29,465.73,914,466.11Z" transform="translate(-792.83 -466.08)"/><path class="cls-7" d="M914,466.11c-12.7.9-34.61,2.63-60.59,32.42-15.6,17.88-29.62,42.39-38.53,62.3l24.71,28.33c17.26-10.19,38.5-26.31,54.21-44.32,25.81-29.59,27.28-54.81,28.28-69.47C922.53,468.83,919.29,465.73,914,466.11Z" transform="translate(-792.83 -466.08)"/><ellipse class="cls-8" cx="96.94" cy="37.08" rx="16.16" ry="18.53"/><ellipse class="cls-9" cx="96.94" cy="37.08" rx="8.08" ry="9.26"/></svg>