<svg id="Layer_1" data-name="Layer 1" xmlns="http://www.w3.org/2000/svg" viewBox="0 0 286.4 121.67"><defs><style>.cls-1{fill:none;stroke-width:16px;}.cls-1,.cls-4{stroke:#fff;stroke-linecap:round;stroke-linejoin:round;}.cls-2{fill:#2b9cf2;}.cls-3,.cls-4{fill:#fff;}.cls-4{font-size:50.6px;stroke-width:3px;font-family:MyanmarText, Myanmar Text;letter-spacing:0.01em;}</style></defs><title>logow</title><polyline class="cls-1" points="153.64 101.95 153.64 101.95 153.64 101.95"/><path class="cls-2" d="M942.2,506.44H902a45.11,45.11,0,0,0-45,45v29.77a45.11,45.11,0,0,0,45,45h29.77a45.11,45.11,0,0,0,45-45v-31.7a10.29,10.29,0,0,0-6.34-9.62C955.67,534,959.1,506.44,942.2,506.44Z" transform="translate(-856.98 -506.44)"/><path class="cls-3" d="M950.78,510.39c-20.87-3.3-22.5,7-24.36,18.76a22.37,22.37,0,0,0,18.6,25.6c12.21,1.93,23.18-4.51,25.6-18.6.06-.38.11-.76.15-1.13Z" transform="translate(-856.98 -506.44)"/><path class="cls-1" d="M913.45,538.17c-9.47,23.67-10,32.1-9.94,34.15a7.24,7.24,0,0,1-.11,1.45c-4.56,26.36-1.51,27.58-1.51,27.58l27.5-.15" transform="translate(-856.98 -506.44)"/><text class="cls-4" transform="translate(152.92 83.07) scale(1.21 1)">Yalid</text><path class="cls-1" d="M880.77,538.13l20.58,44.56h0" transform="translate(-856.98 -506.44)"/></svg>