<svg id="Layer_1" data-name="Layer 1" xmlns="http://www.w3.org/2000/svg" viewBox="0 0 193 163.47"><defs><style>.cls-1,.cls-5{fill:#fff;}.cls-2,.cls-8,.cls-9{fill:#ccefff;}.cls-3,.cls-4,.cls-6{fill:none;}.cls-3,.cls-4,.cls-5,.cls-8,.cls-9{stroke:#2b9cf2;}.cls-3,.cls-4,.cls-5,.cls-6,.cls-8,.cls-9{stroke-linejoin:round;stroke-width:2px;}.cls-4,.cls-5,.cls-6,.cls-8{stroke-linecap:round;}.cls-6{stroke:#1050ff;}.cls-7{fill:#2b9cf2;}</style></defs><title>mix</title><polygon class="cls-1" points="86.25 145.47 96.25 152.47 105.25 148.47 105.25 143.47 101.25 139.47 101.25 143.47 97.25 145.47 97.25 133.47 90.25 129.47 92.25 137.47 86.25 145.47"/><polygon class="cls-1" points="35.75 162.47 26.75 162.47 22.75 157.47 22.75 120.47 17.75 114.47 39.75 114.47 39.75 157.47 35.75 162.47"/><polygon class="cls-1" points="49.25 162.47 55.25 154.47 61.25 162.47 49.25 162.47"/><polygon class="cls-1" points="142.25 162.47 136.25 154.47 130.25 162.47 142.25 162.47"/><polygon class="cls-1" points="180 162.47 167.25 136.53 167.25 124.47 170.75 120.47 155.25 120.47 158.75 124.47 158.75 136.53 146 162.47 180 162.47"/><polyline class="cls-1" points="69.75 80.24 69.75 110.14 95.75 124.97 121.75 110.14 121.75 80.24"/><polygon class="cls-2" points="88.87 147.31 96.25 152.47 105.25 148.47 105.25 143.47 101.25 139.47 101.25 143.47 97.25 145.47 97.25 133.47 93.87 131.54 95.17 137.97 88.87 147.31"/><polygon class="cls-2" points="136.25 162.47 142.25 162.47 136.25 154.47 136.25 162.47"/><polygon class="cls-2" points="55.25 162.47 61.25 162.47 55.25 154.47 55.25 162.47"/><polygon class="cls-2" points="157.76 150.47 151.75 162.47 180 162.47 174.1 150.47 157.76 150.47"/><polygon class="cls-2" points="27.75 138.47 27.75 162.47 35.75 162.47 39.75 157.47 39.75 138.47 27.75 138.47"/><polygon class="cls-2" points="121.75 110.14 121.75 95.47 116.55 91.47 111.35 95.45 106.15 91.47 100.95 95.45 95.75 91.47 90.55 95.45 85.35 91.47 80.15 95.45 74.95 91.47 74.75 91.63 74.75 106.85 101.03 121.96 121.75 110.14"/><polygon class="cls-3" points="35.75 162.47 26.75 162.47 22.75 157.47 22.75 120.47 17.75 114.47 39.75 114.47 39.75 157.47 35.75 162.47"/><line class="cls-4" x1="26.75" y1="126.47" x2="29.75" y2="126.47"/><line class="cls-4" x1="26.75" y1="132.47" x2="29.75" y2="132.47"/><line class="cls-4" x1="26.75" y1="144.47" x2="29.75" y2="144.47"/><line class="cls-4" x1="26.75" y1="150.47" x2="29.75" y2="150.47"/><polygon class="cls-4" points="86.25 145.47 96.25 152.47 105.25 148.47 105.25 143.47 101.25 139.47 101.25 143.47 97.25 145.47 97.25 133.47 90.25 129.47 92.25 137.47 86.25 145.47"/><polygon class="cls-5" points="108.75 162.47 83.75 162.47 88.75 156.47 103.75 156.47 108.75 162.47"/><polyline class="cls-6" points="69.75 95.45 74.95 91.47 80.15 95.45 85.35 91.47 90.55 95.45 95.75 91.47 100.95 95.45 106.15 91.47 111.35 95.45 116.55 91.47 121.75 95.47"/><polygon class="cls-4" points="49.25 162.47 55.25 154.47 61.25 162.47 49.25 162.47"/><polyline class="cls-4" points="136.25 154.47 124.75 104.47 66.75 104.47 55.25 154.47"/><polygon class="cls-4" points="142.25 162.47 136.25 154.47 130.25 162.47 142.25 162.47"/><line class="cls-4" x1="153.75" y1="158.47" x2="155.76" y2="154.48"/><polygon class="cls-3" points="180 162.47 167.25 136.53 167.25 124.47 170.75 120.47 155.25 120.47 158.75 124.47 158.75 136.53 146 162.47 180 162.47"/><line class="cls-4" x1="10" y1="162.47" x2="184" y2="162.47"/><line class="cls-4" x1="189" y1="162.47" x2="192" y2="162.47"/><line class="cls-4" x1="1" y1="162.47" x2="4" y2="162.47"/><line class="cls-4" x1="174.1" y1="150.47" x2="151.9" y2="150.47"/><rect class="cls-4" x="941.38" y="541.88" width="4.24" height="4.24" transform="translate(-971.57 367.96) rotate(-45)"/><path class="cls-7" d="M960.95,571.37a.2.2,0,0,0-.14.06l-1.88,1.88a.2.2,0,0,0,0,.28l1.88,1.88a.2.2,0,0,0,.28,0l1.88-1.88a.2.2,0,0,0,0-.28l-1.88-1.88a.2.2,0,0,0-.14-.06Z" transform="translate(-863.25 -458.53)"/><path class="cls-7" d="M969.17,555.42a.2.2,0,0,0-.14.06l-1.88,1.88a.2.2,0,0,0,0,.28l1.88,1.88a.2.2,0,0,0,.28,0l1.88-1.88a.2.2,0,0,0,0-.28l-1.88-1.88a.2.2,0,0,0-.14-.06Z" transform="translate(-863.25 -458.53)"/><path class="cls-7" d="M949.38,565.7a.2.2,0,0,0-.14.06l-1.88,1.88a.2.2,0,0,0,0,.28l1.88,1.88a.2.2,0,0,0,.28,0l1.88-1.88a.2.2,0,0,0,0-.28l-1.88-1.88a.2.2,0,0,0-.14-.06Z" transform="translate(-863.25 -458.53)"/><line class="cls-4" x1="96.25" y1="156.47" x2="96.25" y2="158.47"/><line class="cls-4" x1="91.75" y1="156.47" x2="91.75" y2="158.47"/><line class="cls-4" x1="100.75" y1="156.47" x2="100.75" y2="158.47"/><line class="cls-4" x1="22.75" y1="138.47" x2="39.75" y2="138.47"/><polygon class="cls-3" points="102.75 69.28 102.75 60.09 107.02 55.47 84.48 55.47 88.75 60.09 88.75 69.28 69.75 80.24 69.75 110.14 95.75 124.97 121.75 110.14 121.75 80.24 102.75 69.28"/><polyline class="cls-4" points="69.75 95.45 74.95 91.47 80.15 95.45 85.35 91.47 90.55 95.45 95.75 91.47 100.95 95.45 106.15 91.47 111.35 95.45 116.55 91.47 121.75 95.47"/><polygon class="cls-8" points="132 20.14 124.33 12.27 120.8 23.41 132 20.14"/><polygon class="cls-8" points="132.94 60.02 135.09 53.61 128 54.81 132.94 60.02"/><polygon class="cls-8" points="93.38 41.29 93.42 34.53 87.06 37.88 93.38 41.29"/><polyline class="cls-4" points="55.53 26.25 58.24 30.45 63.03 29.02 65.75 33.22 70.54 31.79 73.26 35.99"/><polyline class="cls-4" points="137.01 32.27 134.3 36.47 129.51 35.04 126.79 39.24 122 37.81 119.28 42.01"/><polyline class="cls-4" points="106.37 1 107.39 5.89 102.98 8.24 104 13.14 99.59 15.49 100.61 20.38"/><polygon class="cls-9" points="73.88 14.26 70.34 13.55 69.64 10.02 71.76 7.9 75.29 8.6 76 12.14 73.88 14.26"/><polygon class="cls-9" points="63.88 51.09 60.34 50.39 59.64 46.85 61.76 44.73 65.29 45.44 66 48.97 63.88 51.09"/></svg>