<svg xmlns="http://www.w3.org/2000/svg" viewBox="0 0 44.75 46.75"><defs><style>.cls-1,.cls-7{fill:#fff;}.cls-1,.cls-3,.cls-4{stroke:#6d6d6d;stroke-width:0.75px;}.cls-1,.cls-4{stroke-miterlimit:10;}.cls-2{fill:#ccefff;}.cls-3,.cls-4,.cls-5{fill:none;}.cls-3,.cls-5,.cls-8{stroke-linecap:round;stroke-linejoin:round;}.cls-5{stroke:#fff;}.cls-5,.cls-8{stroke-width:0.25px;}.cls-6{fill:#2b9cf2;}.cls-8{font-size:2.48px;fill:#9a989d;stroke:#999;font-family:MyanmarText, Myanmar Text;letter-spacing:0em;}</style></defs><title>Asset 10</title><g id="Layer_2" data-name="Layer 2"><g id="Illustrations"><polygon class="cls-1" points="40.38 46.38 2.38 46.38 6.38 38.38 36.38 38.38 40.38 46.38"/><polygon class="cls-1" points="44.38 28.38 44.38 0.38 0.38 0.38 0.38 28.38 18.38 28.38 18.38 31.38 14.38 34.38 30.38 34.38 26.38 31.38 26.38 28.38 44.38 28.38"/><polygon class="cls-2" points="44.38 0.38 0.38 22.38 44.38 22.38 44.38 0.38"/><rect class="cls-3" x="0.38" y="0.38" width="44" height="28"/><line class="cls-3" x1="0.38" y1="22.38" x2="44.38" y2="22.38"/><polyline class="cls-3" points="26.38 28.38 26.38 31.38 30.38 34.38 14.38 34.38 18.38 31.38 18.38 28.38"/><polygon class="cls-3" points="40.38 46.38 2.38 46.38 6.38 38.38 36.38 38.38 40.38 46.38"/><line class="cls-4" x1="8.38" y1="42.38" x2="10.38" y2="42.38"/><line class="cls-4" x1="14.38" y1="42.38" x2="16.38" y2="42.38"/><line class="cls-4" x1="20.38" y1="42.38" x2="22.38" y2="42.38"/><line class="cls-4" x1="26.38" y1="42.38" x2="28.38" y2="42.38"/><line class="cls-4" x1="32.38" y1="42.38" x2="34.38" y2="42.38"/><polyline class="cls-5" points="22.38 13.5 22.38 13.5 22.38 13.5"/><path class="cls-6" d="M18.77,8.5H16.65a2.3,2.3,0,0,0-2.37,2.21v1.46a2.3,2.3,0,0,0,2.37,2.21h1.57a2.3,2.3,0,0,0,2.37-2.21V10.61a.51.51,0,0,0-.33-.47C19.48,9.86,19.66,8.5,18.77,8.5Z"/><path class="cls-7" d="M19.36,8.4c-1.11,0-1.11.51-1.11,1.1a1.14,1.14,0,0,0,1.18,1.1,1.09,1.09,0,0,0,1.18-1.1s0,0,0-.06Z"/><path class="cls-5" d="M17.26,10.06a4.79,4.79,0,0,0-.52,1.68.33.33,0,0,1,0,.07c-.24,1.29-.08,1.35-.08,1.35H18.1"/><text class="cls-8" transform="translate(22.34 12.58) scale(1.3 1)">Yalid</text><path class="cls-5" d="M15.54,10.06l1.08,2.19h0"/></g></g></svg>