<svg xmlns="http://www.w3.org/2000/svg" viewBox="0 0 199 153"><defs><style>.cls-1,.cls-2{fill:#fff;}.cls-1,.cls-2,.cls-3,.cls-4,.cls-5,.cls-6,.cls-7{stroke:#888;}.cls-1,.cls-3,.cls-4{stroke-linecap:round;}.cls-1,.cls-3,.cls-4,.cls-5,.cls-6{stroke-linejoin:round;stroke-width:2px;}.cls-2,.cls-7{stroke-miterlimit:10;}.cls-3,.cls-6,.cls-7{fill:#ccefff;}.cls-4,.cls-5{fill:none;}</style></defs><title>Asset 2</title><g id="Layer_2" data-name="Layer 2"><g id="Illustrations"><rect class="cls-1" x="10" y="59" width="36" height="36"/><polygon class="cls-1" points="120.48 91.38 112 82.89 133.21 61.68 140.28 63.1 141.7 70.17 120.48 91.38"/><rect class="cls-2" x="80" y="40.5" width="44" height="80.5"/><polygon class="cls-3" points="73 16.67 72.93 5.68 62.66 11.26 73 16.67"/><polygon class="cls-3" points="166.94 46 169.09 39.58 162 40.78 166.94 46"/><polygon class="cls-3" points="50.85 135.42 53 129 45.91 130.2 50.85 135.42"/><polygon class="cls-3" points="105.25 23.3 108.52 17.37 101.32 17.28 105.25 23.3"/><polyline class="cls-4" points="37 21.95 39.72 26.14 44.51 24.71 47.22 28.91 52.01 27.48 54.73 31.68"/><polyline class="cls-4" points="148.44 124.26 150.06 129 155.05 128.77 156.67 133.5 161.67 133.27 163.28 138"/><polyline class="cls-4" points="20.28 122.11 25.2 123 27.42 118.52 32.34 119.41 34.57 114.93 39.49 115.82"/><polyline class="cls-4" points="161.87 21.95 159.16 26.14 154.37 24.71 151.65 28.91 146.86 27.48 144.15 31.68"/><polygon class="cls-5" points="105 113.68 102 115.68 99 113.68 99 110.68 102 108.68 105 110.68 105 113.68"/><polygon class="cls-6" points="131.06 7.36 127.53 6.66 126.82 3.12 128.94 1 132.47 1.71 133.18 5.24 131.06 7.36"/><polygon class="cls-6" points="172.24 125 168.71 124.29 168 120.76 170.12 118.64 173.66 119.34 174.36 122.88 172.24 125"/><line class="cls-4" x1="10" y1="152" x2="184" y2="152"/><line class="cls-4" x1="189" y1="152" x2="192" y2="152"/><line class="cls-4" x1="1" y1="152" x2="4" y2="152"/><polygon class="cls-7" points="124 40.5 124 104 80 104 124 40.5"/><rect class="cls-4" x="80" y="40.5" width="44" height="80.5"/><line class="cls-4" x1="80" y1="104" x2="124" y2="104"/><polygon class="cls-2" points="114 152 114 138.68 125 122.68 124 121 91 121 91 114.68 80 107.68 80 87.18 74 82.68 68 87.68 68 117.68 80 133.68 80 152 114 152"/><polygon class="cls-1" points="133 90.5 135 96.5 133 102.5 110 102.5 107 96.5 110 90.5 133 90.5"/><polygon class="cls-1" points="131 102.5 133 108.5 131 114.5 112 114.5 109 108.5 112 102.5 131 102.5"/><polyline class="cls-3" points="24 83 18 83 18 90 24 88"/><polyline class="cls-3" points="38 77 32 77 32 84 38 82"/><polyline class="cls-4" points="24 88 24 70 38 65 38 82"/><polyline class="cls-4" points="51 70 51 100 21 100"/><polygon class="cls-2" points="198 92 164 92 156 100.5 156 60 198 60 198 92"/><polygon class="cls-7" points="170 67 170 71 166 73.5 162 71 170 67"/><polygon class="cls-7" points="162 88 156 94.5 156 100.5 164 92 198 92 198 88 162 88"/><polygon class="cls-7" points="186.82 71.93 182 83.5 177 80.5 174 84.5 192 84.5 186.82 71.93"/><polygon class="cls-4" points="198 92 164 92 156 100.5 156 60 198 60 198 92"/><polygon class="cls-4" points="170 71 166 73.5 162 71 162 67 166 64.5 170 67 170 71"/><polygon class="cls-4" points="185 67.5 180 79.5 175 76.5 169 84.5 192 84.5 185 67.5"/><line class="cls-4" x1="164" y1="84.5" x2="194" y2="84.5"/><polygon class="cls-4" points="185 67.5 180 79.5 175 76.5 169 84.5 192 84.5 185 67.5"/><polygon class="cls-7" points="91 126.5 91 121 111.25 121 114 126.5 91 126.5"/><line class="cls-1" x1="91" y1="125" x2="91" y2="121"/><polygon class="cls-4" points="114 152 114 138.68 125 122.68 124 121 91 121 91 114.68 80 107.68 80 87.18 74 82.68 68 87.68 68 117.68 80 133.68 80 152 114 152"/><polygon class="cls-1" points="129 114.5 131 120.5 129 126.5 114 126.5 111 120.5 114 114.5 129 114.5"/></g></g></svg>