<svg id="Layer_1" data-name="Layer 1" xmlns="http://www.w3.org/2000/svg" viewBox="0 0 46 30"><defs><style>.cls-1{fill:#fff;}.cls-2{fill:#ccefff;}.cls-3{fill:none;stroke:#2b9cf2;stroke-linecap:round;stroke-linejoin:round;stroke-width:2px;}</style></defs><title>power</title><polyline class="cls-1" points="41 29 45 13 5 13 6.49 18.95"/><polyline class="cls-1" points="20 29 25 21 30 29"/><line class="cls-1" x1="8" y1="25" x2="9" y2="29"/><polyline class="cls-2" points="41 29 45 13 37.86 13 26.87 23.99 30 29"/><polygon class="cls-2" points="14 25 2 25 1 19 17 19 14 25"/><polyline class="cls-3" points="5 13 16.5 1 21 1"/><polyline class="cls-3" points="45 13 33.5 1 29 1"/><polygon class="cls-3" points="14 25 2 25 1 19 17 19 14 25"/><polyline class="cls-3" points="41 29 45 13 5 13 6.49 18.95"/><polyline class="cls-3" points="20 29 25 21 30 29"/><line class="cls-3" x1="8" y1="25" x2="9" y2="29"/></svg>