<svg id="Layer_1" data-name="Layer 1" xmlns="http://www.w3.org/2000/svg" viewBox="0 0 197 207"><defs><style>.cls-1,.cls-4,.cls-5,.cls-6,.cls-7{fill:none;stroke-width:2px;}.cls-1,.cls-6,.cls-7{stroke:#2b9cf2;}.cls-1,.cls-5,.cls-7{stroke-linecap:round;}.cls-1,.cls-4,.cls-5,.cls-6{stroke-linejoin:round;}.cls-2{fill:#fff;}.cls-3{fill:#ccefff;}.cls-4,.cls-5{stroke:#1050ff;}.cls-7{stroke-miterlimit:10;}</style></defs><title>relation</title><line class="cls-1" x1="126.85" y1="31.37" x2="141.52" y2="39.81"/><line class="cls-1" x1="43.69" y1="45.44" x2="68.15" y2="31.37"/><polygon class="cls-2" points="192 89 154 89 158 81 188 81 192 89"/><polygon class="cls-2" points="196 71 196 43 152 43 152 71 170 71 170 74 166 77 182 77 178 74 178 71 196 71"/><polygon class="cls-3" points="196 43 152 65 196 65 196 43"/><rect class="cls-1" x="152" y="43" width="44" height="28"/><line class="cls-1" x1="152" y1="65" x2="196" y2="65"/><polyline class="cls-1" points="178 71 178 74 182 77 166 77 170 74 170 71"/><polygon class="cls-1" points="192 89 154 89 158 81 188 81 192 89"/><line class="cls-1" x1="160" y1="85" x2="162" y2="85"/><line class="cls-1" x1="166" y1="85" x2="168" y2="85"/><line class="cls-1" x1="172" y1="85" x2="174" y2="85"/><line class="cls-1" x1="178" y1="85" x2="180" y2="85"/><line class="cls-1" x1="184" y1="85" x2="186" y2="85"/><polygon class="cls-2" points="36 59 33 59 33 51 28 47 27 43 7 43 6 47 1 51 1 79 6 83 7 87 27 87 28 83 33 79 33 65 36 65 37 62 36 59"/><polygon class="cls-3" points="17 72 27 62 22 56 17 60 17 72"/><polygon class="cls-3" points="24.23 58.67 27 62 17 72 13.27 68.27 1 79 33 79 33 51 24.23 58.67"/><rect class="cls-1" x="1" y="51" width="32" height="28"/><polyline class="cls-1" points="33 51 28 47 27 43 7 43 6 47 1 51"/><polyline class="cls-1" points="33 79 28 83 27 87 7 87 6 83 1 79"/><polyline class="cls-1" points="33 59 36 59 37 62 36 65 33 65"/><line class="cls-1" x1="6" y1="47" x2="28" y2="47"/><line class="cls-1" x1="6" y1="83" x2="28" y2="83"/><polygon class="cls-4" points="17 72 27 62 22 56 17 60 12 56 7 62 17 72"/><polygon class="cls-5" points="17 72 27 62 22 56 17 60 12 56 7 62 17 72"/><polygon class="cls-6" points="17 72 27 62 22 56 17 60 12 56 7 62 17 72"/><polyline class="cls-2" points="82.5 25 83.5 29 94.5 29 99.5 21 104.5 29 115.5 29 119.5 13 79.5 13 80.99 18.95"/><polygon class="cls-3" points="115.5 29 119.5 13 112.36 13 101.37 23.99 104.5 29 115.5 29"/><polygon class="cls-3" points="88.5 25 76.5 25 75.5 19 91.5 19 88.5 25"/><polyline class="cls-1" points="79.5 13 91 1 95.5 1"/><polyline class="cls-1" points="119.5 13 108 1 103.5 1"/><polygon class="cls-1" points="88.5 25 76.5 25 75.5 19 91.5 19 88.5 25"/><polyline class="cls-1" points="82.5 25 83.5 29 94.5 29 99.5 21 104.5 29 115.5 29 119.5 13 79.5 13 80.99 18.95"/><line class="cls-1" x1="19" y1="112.75" x2="19" y2="95.87"/><line class="cls-1" x1="68.15" y1="174.62" x2="48.59" y2="163.37"/><line class="cls-1" x1="141.52" y1="166.19" x2="126.85" y2="174.62"/><line class="cls-1" x1="176" y1="95.87" x2="176" y2="112.75"/><polygon class="cls-2" points="116 191 116 167 80 167 80 191 76 203 79 207 117 207 120 203 116 191"/><polygon class="cls-3" points="116 167 116 191 80 191 116 167"/><rect class="cls-1" x="80" y="167" width="36" height="24"/><polyline class="cls-1" points="116 191 120 203 76 203 80 191"/><polyline class="cls-1" points="92 203 94 199 102 199 104 203"/><rect class="cls-2" x="1" y="121" width="36" height="46"/><path class="cls-3" d="M912,623h36V585Zm20-12h-4v-4h4Zm8-8h-4v-4h4Z" transform="translate(-911 -464)"/><rect class="cls-1" x="9" y="127" width="4" height="4"/><rect class="cls-1" x="17" y="127" width="4" height="4"/><rect class="cls-1" x="9" y="135" width="4" height="4"/><rect class="cls-1" x="17" y="135" width="4" height="4"/><rect class="cls-1" x="9" y="143" width="4" height="4"/><rect class="cls-1" x="25" y="127" width="4" height="4"/><rect class="cls-1" x="25" y="135" width="4" height="4"/><rect class="cls-1" x="17" y="143" width="4" height="4"/><rect class="cls-1" x="1" y="121" width="36" height="46"/><line class="cls-1" x1="37" y1="159" x2="1" y2="159"/><line class="cls-1" x1="17" y1="163" x2="21" y2="163"/><rect class="cls-2" x="149" y="124" width="46" height="36"/><path class="cls-3" d="M1099.43,600h.57v4h-7.14l-6.57,4H1100v4h-16v-2.6l-4,2.43V620h-13.43l-6.57,4h46V596Zm.57,20h-16v-4h16Z" transform="translate(-911 -464)"/><line class="cls-7" x1="153" y1="128" x2="155" y2="128"/><line class="cls-7" x1="159" y1="128" x2="161" y2="128"/><line class="cls-7" x1="165" y1="128" x2="167" y2="128"/><rect class="cls-1" x="149" y="124" width="46" height="36"/><line class="cls-1" x1="149" y1="132" x2="195" y2="132"/><rect class="cls-1" x="173" y="144" width="16" height="4"/><rect class="cls-1" x="173" y="136" width="16" height="4"/><rect class="cls-1" x="173" y="152" width="16" height="4"/><rect class="cls-1" x="153" y="136" width="16" height="20"/><polygon class="cls-1" points="165 148 161 150 157 148 157 143 161 141 165 143 165 148"/><polyline class="cls-1" points="153 156 156 152 166 152 169 156"/></svg>