<svg xmlns="http://www.w3.org/2000/svg" viewBox="0 0 468.37 406.19"><defs><style>.cls-1{fill:#e0e7ee;}.cls-10,.cls-13,.cls-14,.cls-15,.cls-16,.cls-2,.cls-4,.cls-6,.cls-9{fill:none;}.cls-13,.cls-18,.cls-2,.cls-4{stroke:#263346;}.cls-10,.cls-13,.cls-14,.cls-15,.cls-16,.cls-18,.cls-2,.cls-9{stroke-miterlimit:10;}.cls-18,.cls-19,.cls-2,.cls-7,.cls-9{stroke-width:8px;}.cls-18,.cls-3,.cls-7{fill:#acdcf3;}.cls-13,.cls-14,.cls-15,.cls-16,.cls-19,.cls-4,.cls-6,.cls-7{stroke-linecap:round;}.cls-19,.cls-4,.cls-6,.cls-7{stroke-linejoin:round;}.cls-4,.cls-6{stroke-width:10px;}.cls-5{fill:#fff;}.cls-14,.cls-19,.cls-6,.cls-7,.cls-9{stroke:#2b9cf2;}.cls-8{fill:#a2d2dd;}.cls-10{stroke:#a2d2dd;}.cls-11{fill:#2b9cf2;}.cls-12{fill:#263346;}.cls-13,.cls-14,.cls-16{stroke-width:5px;}.cls-15,.cls-16{stroke:#f9f9f9;}.cls-15{stroke-width:6px;}.cls-17{fill:#d3e4e5;}.cls-19{fill:#f4f4f4;}</style></defs><title>Asset 1</title><g id="Layer_2" data-name="Layer 2"><g id="Layer_1-2" data-name="Layer 1"><path class="cls-1" d="M464.14,441.22c6.11,3,5.43,13.69-1,15.56-34.08,10-111,33.08-221.83,29.19C108.1,481.31,0,471.07,0,452.68s108-33.3,241.33-33.3C356.36,419.38,421.79,420.43,464.14,441.22Z" transform="translate(0 -80.22)"/><path class="cls-2" d="M25.83,0" transform="translate(0 -80.22)"/><path class="cls-2" d="M24.52,1.35" transform="translate(0 -80.22)"/><g id="_Group_" data-name="&lt;Group&gt;"><path class="cls-3" d="M36.24,95.29l33.57,72.77,71.14-77C136.89,89.14,114.12,77,36.24,95.29Z" transform="translate(0 -80.22)"/><path class="cls-3" d="M141.39,90.56l-.44.48C141.77,91.42,141.82,91.39,141.39,90.56Z" transform="translate(0 -80.22)"/><path class="cls-4" d="M140.95,91c-4.06-1.9-26.83-14-104.71,4.26l33.57,72.77Z" transform="translate(0 -80.22)"/><path class="cls-4" d="M141.39,90.56c.43.83.38.86-.44.48Z" transform="translate(0 -80.22)"/></g><g id="_Group_2" data-name="&lt;Group&gt;"><path class="cls-5" d="M33.47,97.6l33.31,63.9,18.48-10.86S95.6,97.5,33.47,97.6Z" transform="translate(0 -80.22)"/><path class="cls-3" d="M138.62,92.87l-.44.48C139,93.73,139.05,93.7,138.62,92.87Z" transform="translate(0 -80.22)"/><path class="cls-6" d="M138.18,93.35c-4.06-1.9-26.83-14-104.71,4.26L67,170.38Z" transform="translate(0 -80.22)"/><path class="cls-4" d="M138.62,92.87c.43.83.38.86-.44.48Z" transform="translate(0 -80.22)"/></g><path class="cls-7" d="M457.76,303.25a15.39,15.39,0,0,1,2.09,12.64c-5.27,19.33-16.85,52.68-32.38,74.78C409,417,388,423.27,352.2,436.2c-8.66,3.13-18.67-.61-21.71-8.09h0c-2.73-6.7,1.19-14,9-16.82,71.29-25.75,83.14-76.48,90.39-107.52l.24-1a13.34,13.34,0,0,1,5.82-8,13.65,13.65,0,0,1,18.78,3.93Z" transform="translate(0 -80.22)"/><path class="cls-3" d="M385.08,334.52c10,83.16,0,115.36-149.76,116.25s-168-54.69-149.77-116.25c21.09-71.24,67.06-116.24,149.77-116.24S377.79,273.73,385.08,334.52Z" transform="translate(0 -80.22)"/><polygon class="cls-8" points="86.29 270.61 110.17 290.31 79.91 304.55 86.29 270.61"/><path class="cls-8" d="M385.08,334.52c10,83.16,0,115.36-149.76,116.25s-168-54.69-149.77-116.25c-13.37,46.9,47,97.53,150.42,96.25C315.78,429.77,382.94,412.45,385.08,334.52Z" transform="translate(0 -80.22)"/><polygon class="cls-8" points="383.78 267.61 359.9 287.31 390.17 301.55 383.78 267.61"/><polygon class="cls-8" points="377.78 231.61 353.9 251.31 384.17 265.55 377.78 231.61"/><polygon class="cls-8" points="92.29 234.61 116.17 254.31 85.91 268.55 92.29 234.61"/><path class="cls-9" d="M385.08,334.52c10,83.16,0,115.36-149.76,116.25s-168-54.69-149.77-116.25c21.09-71.24,67.06-116.24,149.77-116.24S377.79,273.73,385.08,334.52Z" transform="translate(0 -80.22)"/><path class="cls-3" d="M436.53,94.62l-33,73L331.79,91.19c4-1.93,26.72-14.24,104.74,3.43" transform="translate(0 -80.22)"/><path class="cls-3" d="M331.35,90.71l.44.48C331,91.58,330.92,91.54,331.35,90.71Z" transform="translate(0 -80.22)"/><path class="cls-4" d="M436.53,94.62l-33,73L331.79,91.19c4-1.93,26.72-14.24,104.74,3.43" transform="translate(0 -80.22)"/><path class="cls-4" d="M331.35,90.71c-.42.83-.38.87.44.48Z" transform="translate(0 -80.22)"/><path class="cls-5" d="M436.53,94.62l-33,73L382,160.92S374.4,95,436.53,94.62" transform="translate(0 -80.22)"/><path class="cls-3" d="M331.35,90.71l.44.48C331,91.58,330.92,91.54,331.35,90.71Z" transform="translate(0 -80.22)"/><path class="cls-6" d="M436.53,94.62l-33,73L331.79,91.19c4-1.93,26.72-14.24,104.74,3.43" transform="translate(0 -80.22)"/><path class="cls-4" d="M331.35,90.71c-.42.83-.38.87.44.48Z" transform="translate(0 -80.22)"/><path class="cls-3" d="M411.83,194.71v9c0,58.32-47.71,106-106,106H166.14c-58.32,0-106-47.72-106-106v-9c0-58.31,47.71-106,106-106H305.8C364.12,88.68,411.83,136.4,411.83,194.71Z" transform="translate(0 -80.22)"/><path class="cls-8" d="M407.75,202.61a2.19,2.19,0,0,1,4.08,1.1c0,58.32-47.72,106-106,106H166.15c-58.32,0-106-47.72-106-106v-9c33.8,61.56,58.23,102.08,175.86,102.1C365.3,296.82,377,257.11,407.75,202.61Z" transform="translate(0 -80.22)"/><path class="cls-10" d="M411.83,203.71c0,58.32-47.72,106-106,106H166.15c-58.32,0-106-47.72-106-106v-9c33.8,61.56,58.23,102.08,175.86,102.1,129.33,0,141.08-39.7,171.78-94.2A2.19,2.19,0,0,1,411.83,203.71Z" transform="translate(0 -80.22)"/><path class="cls-9" d="M305.8,309.75H166.14c-58.32,0-106-47.72-106-106v-9c0-58.31,47.71-106,106-106H305.8c58.32,0,106,47.72,106,106v9C411.83,262,364.12,309.75,305.8,309.75Z" transform="translate(0 -80.22)"/><circle class="cls-5" cx="161.27" cy="123.49" r="45.11"/><path class="cls-11" d="M178.68,197.68a12.81,12.81,0,0,1-12.86-12.75,12.63,12.63,0,0,1,3-8.21,28,28,0,1,0,18.77,17.37A12.87,12.87,0,0,1,178.68,197.68Z" transform="translate(0 -80.22)"/><circle class="cls-5" cx="305.27" cy="123.49" r="45.11"/><path class="cls-11" d="M322.68,197.68a12.81,12.81,0,0,1-12.86-12.75,12.63,12.63,0,0,1,3-8.21,28,28,0,1,0,18.77,17.37A12.87,12.87,0,0,1,322.68,197.68Z" transform="translate(0 -80.22)"/><path class="cls-12" d="M232.3,209.51a13.69,13.69,0,0,0-7.89,2.49c-4.94,3.46-2.38,11.26,3.65,11.26h8.48c6,0,8.59-7.8,3.65-11.26A13.69,13.69,0,0,0,232.3,209.51Z" transform="translate(0 -80.22)"/><path class="cls-13" d="M232.3,216.39s7.3,27.54-17.2,28" transform="translate(0 -80.22)"/><path class="cls-13" d="M233.15,217s-6.2,27.54,18.3,28" transform="translate(0 -80.22)"/><path class="cls-13" d="M390,217" transform="translate(0 -80.22)"/><line class="cls-14" x1="455.04" y1="109.46" x2="395.04" y2="125.49"/><line class="cls-14" x1="392.04" y1="135.78" x2="452.04" y2="154.46"/><line class="cls-14" x1="388.33" y1="105.95" x2="457.33" y2="84.95"/><path class="cls-13" d="M18.83,189" transform="translate(0 -80.22)"/><line class="cls-14" x1="69.83" y1="109.41" x2="9.83" y2="90.74"/><line class="cls-14" x1="73.54" y1="139.24" x2="4.54" y2="160.24"/><line class="cls-14" x1="69.83" y1="123.49" x2="18.83" y2="129.29"/><path class="cls-15" d="M350.38,132.62c6.41,3.76,12,8.55,15.65,14.62l5.36,13.37" transform="translate(0 -80.22)"/><path class="cls-16" d="M350.38,132.62" transform="translate(0 -80.22)"/><path class="cls-16" d="M333.31,125.22" transform="translate(0 -80.22)"/><path class="cls-15" d="M299.27,119.63c-5.78-.63,13.9-.81,34,5.59" transform="translate(0 -80.22)"/><path class="cls-5" d="M297.23,430.07c0,29.71-26.61,4.58-61.27,4.58s-64.22,25.13-64.22-4.58,28.09-53.8,62.74-53.8S297.23,400.36,297.23,430.07Z" transform="translate(0 -80.22)"/><rect class="cls-17" x="206.38" y="349.46" width="53.78" height="16.07"/><polyline class="cls-7" points="138.74 292.55 138.74 382.57 204.75 382.57 204.75 292.55"/><path class="cls-18" d="M133.23,358.74" transform="translate(0 -80.22)"/><path class="cls-18" d="M206.38,358.74" transform="translate(0 -80.22)"/><polyline class="cls-7" points="261.97 292.55 261.97 382.57 327.98 382.57 327.98 292.55"/><path class="cls-19" d="M210.71,462.79c-.22-15.57-17.58-28.14-39-28.14s-38.74,12.57-39,28.14Z" transform="translate(0 -80.22)"/><path class="cls-19" d="M333.94,462.79c-.22-15.57-17.58-28.14-39-28.14s-38.74,12.57-39,28.14Z" transform="translate(0 -80.22)"/><path class="cls-8" d="M367.67,296.83c0-1.28.82,6.27,0,7.39l-.78,1.06A45.64,45.64,0,0,0,367.67,296.83Z" transform="translate(0 -80.22)"/><path class="cls-8" d="M366.89,305.28c-5.39,29.32-38.4,52.06-78,52.06H185.16c-36.69,0-78.23-29.05-81.2-50.1,25.11,35.13,45.68,42.7,133.07,42.71C332,350,344.59,335.64,366.89,305.28Z" transform="translate(0 -80.22)"/><path class="cls-8" d="M106.38,296.83,104,307.24A13.77,13.77,0,0,1,106.38,296.83Z" transform="translate(0 -80.22)"/><path class="cls-10" d="M104,307.24c25.11,35.13,45.68,42.7,133.07,42.71,95,0,107.56-14.31,129.86-44.67" transform="translate(0 -80.22)"/><path class="cls-10" d="M104,307.24a13.77,13.77,0,0,1,2.42-10.41Z" transform="translate(0 -80.22)"/><path class="cls-10" d="M366.89,305.28c-5.39,29.32-38.4,52.06-78,52.06H185.16c-36.69,0-78.23-29.05-81.2-50.1" transform="translate(0 -80.22)"/><path class="cls-10" d="M366.89,305.28l.78-1.06c.82-1.12,0-8.67,0-7.39A45.64,45.64,0,0,1,366.89,305.28Z" transform="translate(0 -80.22)"/></g></g></svg>